<svg width="2267" height="2270" viewBox="0 0 2267 2270" fill="none" xmlns="http://www.w3.org/2000/svg">
    <path d="M222.568 469.605C177.741 533.643 140.919 604.085 116.905 677.729C91.2895 751.373 78.4819 828.218 78.4819 905.064C78.4819 981.91 89.6885 1057.15 113.703 1129.2C137.717 1201.24 176.14 1268.48 224.169 1326.11C273.798 1383.75 333.033 1431.78 400.273 1467C467.514 1502.22 542.758 1526.23 619.604 1535.84C696.45 1547.05 778.098 1543.84 856.545 1532.64C896.569 1526.23 934.992 1518.23 973.415 1508.62C1011.84 1497.42 1048.66 1484.61 1083.88 1467C1155.92 1433.38 1221.56 1390.15 1279.2 1334.12C1335.23 1278.09 1381.66 1212.45 1413.68 1140.4C1445.7 1068.36 1464.91 988.314 1464.91 909.867C1466.51 829.819 1448.9 749.772 1410.47 680.931C1372.05 610.489 1309.61 554.455 1235.97 524.037C1162.33 492.018 1077.48 485.614 997.429 493.619C1077.48 480.811 1162.33 484.013 1240.77 514.431C1319.22 543.249 1386.46 599.282 1429.69 671.325C1472.91 743.368 1495.33 828.218 1496.93 911.468C1498.53 996.318 1482.52 1079.57 1450.5 1158.01C1418.48 1236.46 1372.05 1308.5 1312.82 1369.34C1255.18 1430.18 1184.74 1479.81 1107.89 1516.63C1069.47 1535.84 1031.05 1550.25 989.424 1563.06C949.4 1575.86 907.776 1585.47 866.151 1591.87C782.901 1604.68 699.652 1609.48 613.2 1606.28C528.35 1599.88 441.898 1582.27 363.452 1543.84C285.005 1507.02 211.361 1454.19 153.727 1388.55C96.0924 1322.91 49.6647 1244.47 22.4485 1162.82C14.4437 1138.8 8.03992 1114.79 1.63611 1090.77C1.63611 1106.78 0.0351562 1121.19 0.0351562 1137.2C0.0351562 1473.4 145.722 1774.38 377.86 1982.51C384.264 1984.11 392.269 1985.71 398.673 1987.31C446.701 1998.52 496.331 2004.92 547.561 2006.52C597.191 2009.72 648.421 2006.52 698.051 2003.32C798.911 1993.71 899.771 1974.5 999.03 1947.28C1096.69 1920.07 1192.75 1881.65 1280.8 1830.42C1368.85 1780.79 1448.9 1716.75 1517.74 1641.5C1586.58 1566.26 1642.61 1481.41 1682.64 1386.95C1722.66 1292.49 1745.07 1191.63 1748.28 1089.17C1751.48 986.713 1732.27 882.651 1687.44 789.795C1642.61 696.94 1570.57 615.292 1477.71 567.263C1575.37 608.888 1657.02 685.734 1708.25 780.19C1761.08 874.646 1786.7 981.91 1789.9 1089.17C1796.3 1305.3 1713.06 1521.43 1570.57 1686.33C1500.13 1769.58 1415.28 1840.02 1322.42 1896.05C1229.57 1953.69 1128.71 1995.31 1024.65 2027.33C922.184 2057.75 816.521 2083.37 707.656 2094.57C653.224 2099.38 598.792 2102.58 544.359 2099.38C541.157 2099.38 539.556 2099.38 536.354 2099.38C709.257 2206.64 914.179 2269.08 1133.51 2269.08C1376.85 2269.08 1602.59 2192.23 1786.7 2062.55C1799.51 2044.94 1812.31 2028.93 1825.12 2009.72C1861.94 1956.89 1892.36 1899.26 1919.58 1840.02C1946.79 1780.79 1967.61 1719.95 1982.02 1655.91C1996.42 1591.87 2006.03 1527.84 2009.23 1462.2C2012.43 1396.56 2007.63 1330.92 1999.63 1265.28C1980.41 1135.6 1935.59 1007.53 1869.95 889.055C1950 996.318 2010.83 1122.79 2042.85 1257.27C2058.86 1324.51 2066.87 1393.35 2068.47 1462.2C2070.07 1531.04 2065.27 1601.48 2052.46 1668.72C2039.65 1737.56 2020.44 1804.8 1994.82 1868.84C1994.82 1868.84 1994.82 1870.44 1993.22 1870.44C2162.92 1671.92 2266.99 1414.17 2266.99 1132.4C2266.99 1101.98 2265.38 1071.56 2263.78 1041.15C2244.57 949.891 2214.15 861.838 2169.33 781.791C2108.49 668.123 2020.44 570.465 1919.58 490.417C1818.72 410.369 1703.45 347.932 1580.18 309.509C1456.9 271.087 1327.23 253.476 1197.55 258.279C1067.87 263.082 939.795 290.298 819.723 338.327C701.253 386.355 589.186 456.797 507.537 552.854C465.913 600.883 433.893 655.315 416.283 714.551C397.072 773.786 392.269 836.223 403.475 897.059C408.278 927.477 417.884 957.896 430.692 986.713L440.297 1007.53L451.504 1028.34C457.908 1042.75 465.913 1055.55 475.518 1066.76C510.739 1116.39 561.97 1153.21 619.604 1174.02C677.238 1194.84 741.276 1199.64 803.714 1191.63C866.151 1183.63 926.987 1161.22 981.419 1129.2C1035.85 1097.18 1083.88 1052.35 1115.9 997.919C1147.92 943.487 1159.13 879.449 1149.52 817.012C1144.72 784.993 1135.11 754.574 1120.7 725.757C1106.29 696.94 1087.08 671.325 1064.67 648.912C1018.24 604.085 957.405 573.667 893.367 560.859C830.93 549.652 765.291 552.854 707.656 578.47C730.07 568.864 754.084 564.061 781.3 564.061C886.963 564.061 973.415 650.513 973.415 756.175C973.415 861.838 886.963 948.29 781.3 948.29C675.637 948.29 589.186 861.838 589.186 756.175C589.186 748.171 589.186 740.166 590.787 732.161V733.762C593.989 700.142 605.195 668.123 624.407 640.907C643.618 613.691 669.234 591.277 699.652 575.268C760.488 543.249 830.93 536.845 896.569 548.052C963.809 559.258 1027.85 588.075 1077.48 634.503C1103.09 656.916 1123.9 685.734 1139.91 716.152C1155.92 746.57 1168.73 778.589 1175.13 812.209C1183.14 845.829 1184.74 881.05 1179.94 916.271C1175.13 951.492 1163.93 985.112 1147.92 1015.53C1115.9 1077.97 1064.67 1129.2 1005.43 1166.02C946.199 1202.84 880.559 1228.46 811.718 1239.66C742.877 1250.87 670.835 1247.67 601.994 1225.25C534.754 1202.84 472.316 1159.62 429.091 1100.38C417.884 1085.97 408.278 1069.96 400.273 1055.55L387.466 1033.14L376.259 1009.13C361.851 977.107 352.245 943.487 344.24 908.266C329.832 837.824 334.634 764.18 357.048 696.94C377.86 629.7 414.682 567.263 459.509 514.431C550.763 407.168 669.234 331.923 795.709 280.692C922.184 229.462 1058.27 200.645 1194.35 195.842C1330.43 191.039 1468.11 208.649 1597.79 250.274C1663.43 271.087 1725.86 298.303 1786.7 330.322C1847.54 362.341 1903.57 400.764 1956.4 443.99C2041.25 512.831 2116.5 592.878 2175.73 684.133C2001.23 282.293 1600.99 0.525391 1135.11 0.525391C930.189 0.525391 739.676 54.9578 574.777 149.414C437.095 234.265 312.221 339.928 222.568 469.605Z" fill="#252427"/>
    </svg>
    